<svg width="259" height="30" viewBox="0 0 259 30" fill="none" xmlns="http://www.w3.org/2000/svg">
<g filter="url(#filter0_i_99_3)">
<path d="M22.068 8.38L21.996 8.2C21.708 7.576 21.3 7.036 20.772 6.58C20.268 6.124 19.464 5.752 18.36 5.464C17.256 5.152 15.756 4.996 13.86 4.996H13.536V25.768C13.92 25.768 14.568 25.708 15.48 25.588C16.392 25.444 17.1 25.324 17.604 25.228L17.748 25.444L16.92 28H10.26V27.64C10.356 25.792 10.404 23.872 10.404 21.88V4.996H10.116C8.22 4.996 6.72 5.152 5.616 5.464C4.512 5.752 3.696 6.124 3.168 6.58C2.664 7.036 2.256 7.576 1.944 8.2L1.872 8.38L0.108 7.732L2.16 0.639998H5.004L5.076 0.747999L3.888 2.8H20.052L18.864 0.747999L18.936 0.639998H21.816L23.832 7.732L22.068 8.38ZM27.8294 27.64C27.9254 25.648 27.9734 23.728 27.9734 21.88V12.052C27.5414 12.052 26.7254 12.196 25.5254 12.484L25.0574 12.592L24.9494 12.376L25.6334 10H28.4054C28.7894 10 29.2094 9.988 29.6654 9.964C30.1454 9.94 30.5174 9.904 30.7814 9.856L30.8174 10.144C30.6974 11.968 30.6374 13.96 30.6374 16.12V25.948C30.9734 25.948 31.7294 25.816 32.9054 25.552L33.5174 25.408L33.6254 25.624L32.9414 28H27.8294V27.64ZM31.1414 1.18L29.1614 7.444H28.8014L26.8214 1.18H31.1414ZM70.4849 25.624L69.8369 28H64.6889V27.64C64.7609 25.648 64.7969 23.728 64.7969 21.88V18.46C64.7969 16.42 64.3529 14.848 63.4649 13.744C62.5769 12.64 61.2929 12.088 59.6129 12.088C58.6529 12.088 57.7649 12.364 56.9489 12.916C56.1569 13.468 55.5329 14.236 55.0769 15.22C54.6449 16.204 54.4289 17.284 54.4289 18.46V21.88C54.4289 23.728 54.4649 25.648 54.5369 27.64V28H51.5849V27.64C51.6809 25.648 51.7289 23.728 51.7289 21.88V18.46C51.7289 16.42 51.2729 14.848 50.3609 13.744C49.4729 12.64 48.2009 12.088 46.5449 12.088C45.5849 12.088 44.7089 12.364 43.9169 12.916C43.1249 13.468 42.4889 14.236 42.0089 15.22C41.5529 16.204 41.3249 17.284 41.3249 18.46V21.88C41.3249 23.728 41.3729 25.648 41.4689 27.64V28H38.5169V27.64C38.6129 25.648 38.6609 23.728 38.6609 21.88V12.052C38.2289 12.052 37.4129 12.196 36.2129 12.484L35.7449 12.592L35.6369 12.376L36.3209 10H38.7689C39.1289 10 39.5489 9.988 40.0289 9.964C40.5329 9.94 40.8929 9.904 41.1089 9.856L41.1809 10.144C41.1569 10.408 41.1329 10.672 41.1089 10.936C41.1089 11.2 41.1089 11.452 41.1089 11.692L41.0369 13.24C41.6369 12.136 42.4529 11.26 43.4849 10.612C44.5409 9.964 45.7289 9.64 47.0489 9.64C48.6089 9.64 49.9169 9.988 50.9729 10.684C52.0289 11.38 52.8209 12.412 53.3489 13.78C53.9729 12.532 54.8729 11.536 56.0489 10.792C57.2249 10.024 58.5209 9.64 59.9369 9.64C61.5209 9.64 62.8769 9.976 64.0049 10.648C65.1329 11.32 65.9969 12.304 66.5969 13.6C67.1969 14.872 67.4969 16.408 67.4969 18.208V25.948C67.9529 25.948 68.7329 25.804 69.8369 25.516C69.9329 25.492 70.0289 25.48 70.1249 25.48C70.2209 25.456 70.3049 25.432 70.3769 25.408L70.4849 25.624ZM85.9514 29.008L86.9954 26.344C86.8514 26.416 86.6954 26.512 86.5274 26.632C86.3594 26.752 86.1674 26.872 85.9514 26.992C85.3994 27.4 84.7874 27.736 84.1154 28C83.4674 28.24 82.6994 28.36 81.8114 28.36C80.1314 28.36 78.5954 27.964 77.2034 27.172C75.8354 26.38 74.7554 25.276 73.9634 23.86C73.1714 22.444 72.7754 20.848 72.7754 19.072C72.7754 17.272 73.1834 15.664 73.9994 14.248C74.8154 12.808 75.9194 11.68 77.3114 10.864C78.7274 10.048 80.2874 9.64 81.9914 9.64C83.7434 9.64 85.2914 10.036 86.6354 10.828C88.0034 11.62 89.0714 12.724 89.8394 14.14C90.6074 15.532 90.9914 17.116 90.9914 18.892C90.9914 19.108 90.9914 19.312 90.9914 19.504C90.9914 19.672 90.9794 19.852 90.9554 20.044H75.4754C75.5954 21.196 75.9314 22.24 76.4834 23.176C77.0594 24.088 77.8034 24.808 78.7154 25.336C79.6514 25.84 80.7074 26.092 81.8834 26.092C82.8674 26.092 83.7794 25.9 84.6194 25.516C85.4834 25.108 86.2034 24.592 86.7794 23.968C87.3794 23.344 87.7994 22.696 88.0394 22.024L88.0754 21.952L90.3434 22.528L88.5434 29.152H86.0954L85.9514 29.008ZM88.2194 17.848C88.0754 16.672 87.7274 15.64 87.1754 14.752C86.6474 13.864 85.9154 13.18 84.9794 12.7C84.0674 12.22 83.0354 11.98 81.8834 11.98C80.7314 11.98 79.6874 12.232 78.7514 12.736C77.8394 13.216 77.0954 13.9 76.5194 14.788C75.9674 15.676 75.6314 16.696 75.5114 17.848H88.2194ZM105.848 27.64C106.064 26.512 106.244 25.156 106.388 23.572C106.556 21.964 106.64 20.404 106.64 18.892V5.32C106.376 5.248 106.076 5.2 105.74 5.176C105.404 5.128 105.056 5.092 104.696 5.068C104.504 5.068 104.312 5.068 104.12 5.068C103.928 5.068 103.724 5.068 103.508 5.068L104.192 2.656C105.128 2.68 106.1 2.716 107.108 2.764C108.14 2.788 109.124 2.8 110.06 2.8H111.428C111.596 3.256 111.764 3.712 111.932 4.168C112.124 4.6 112.316 5.068 112.508 5.572C113.084 6.988 113.6 8.188 114.056 9.172L120.068 21.916L128.996 2.8H133.46V3.16C133.436 3.856 133.4 4.696 133.352 5.68C133.28 6.88 133.244 7.96 133.244 8.92V25.768C133.556 25.768 134.072 25.708 134.792 25.588C135.512 25.444 136.148 25.324 136.7 25.228L136.844 25.444L136.016 28H129.932V27.64C130.052 26.08 130.112 24.16 130.112 21.88V6.436L120.104 28H119.492L109.592 7.012C109.544 6.892 109.472 6.772 109.376 6.652C109.304 6.532 109.208 6.424 109.088 6.328V25.768C109.448 25.768 109.988 25.732 110.708 25.66C111.452 25.564 112.052 25.468 112.508 25.372L112.652 25.588L111.824 28H105.848V27.64ZM145.654 28.396C143.71 28.396 142.21 27.952 141.154 27.064C140.122 26.152 139.606 24.976 139.606 23.536C139.606 22.096 140.05 20.98 140.938 20.188C141.826 19.396 142.894 18.844 144.142 18.532C145.39 18.22 146.89 17.992 148.642 17.848C149.674 17.752 150.514 17.656 151.162 17.56C151.81 17.44 152.326 17.248 152.71 16.984C153.118 16.696 153.322 16.324 153.322 15.868C153.322 14.644 152.938 13.672 152.17 12.952C151.402 12.232 150.382 11.872 149.11 11.872C148.126 11.872 147.226 12.076 146.41 12.484C145.594 12.868 144.886 13.42 144.286 14.14C143.686 14.86 143.194 15.7 142.81 16.66L142.774 16.732L140.83 16.3L142.774 8.884H145.222L145.366 9.064L144.43 11.476C144.742 11.332 145.066 11.14 145.402 10.9C145.954 10.54 146.542 10.24 147.166 10C147.814 9.76 148.594 9.64 149.506 9.64C151.402 9.64 152.914 10.288 154.042 11.584C155.194 12.856 155.77 14.572 155.77 16.732V25.948C156.058 25.948 156.874 25.804 158.218 25.516C158.29 25.492 158.362 25.48 158.434 25.48C158.506 25.456 158.578 25.432 158.65 25.408L158.758 25.624L158.074 28H153.25V27.64C153.274 27.352 153.286 27.04 153.286 26.704C153.31 26.344 153.322 25.984 153.322 25.624C153.322 25.384 153.322 25.168 153.322 24.976C153.346 24.76 153.358 24.556 153.358 24.364C152.734 25.588 151.714 26.572 150.298 27.316C148.882 28.036 147.334 28.396 145.654 28.396ZM146.05 26.128C147.37 26.128 148.594 25.84 149.722 25.264C150.85 24.688 151.726 23.92 152.35 22.96C152.998 22 153.322 20.956 153.322 19.828V18.748C152.89 19.06 152.254 19.324 151.414 19.54C150.574 19.732 149.674 19.864 148.714 19.936C146.602 20.056 145.006 20.38 143.926 20.908C142.87 21.412 142.342 22.24 142.342 23.392C142.342 24.28 142.666 24.964 143.314 25.444C143.986 25.9 144.898 26.128 146.05 26.128ZM175.994 16.984C175.634 16.024 175.166 15.172 174.59 14.428C174.038 13.684 173.366 13.096 172.574 12.664C171.782 12.232 170.894 12.016 169.91 12.016C168.734 12.016 167.678 12.316 166.742 12.916C165.83 13.516 165.11 14.356 164.582 15.436C164.078 16.492 163.826 17.68 163.826 19C163.826 20.32 164.078 21.52 164.582 22.6C165.11 23.656 165.842 24.484 166.778 25.084C167.714 25.684 168.77 25.984 169.946 25.984C171.002 25.984 171.926 25.744 172.718 25.264C173.534 24.784 174.218 24.16 174.77 23.392C175.346 22.624 175.814 21.748 176.174 20.764L178.514 21.376L176.426 29.152H173.978L173.87 28.972L174.878 26.344C174.542 26.56 174.17 26.788 173.762 27.028C173.21 27.412 172.598 27.736 171.926 28C171.254 28.264 170.486 28.396 169.622 28.396C168.038 28.396 166.586 27.988 165.266 27.172C163.946 26.356 162.902 25.228 162.134 23.788C161.366 22.348 160.982 20.74 160.982 18.964C160.982 17.188 161.366 15.592 162.134 14.176C162.902 12.76 163.946 11.644 165.266 10.828C166.586 10.012 168.074 9.604 169.73 9.604C170.57 9.604 171.314 9.736 171.962 10C172.61 10.24 173.198 10.552 173.726 10.936C173.894 11.032 174.05 11.128 174.194 11.224C174.362 11.32 174.506 11.392 174.626 11.44L173.654 9.1L173.798 8.884H176.282L178.262 16.372L175.994 16.984ZM184.096 27.64C184.192 25.648 184.24 23.728 184.24 21.88V4.852C183.808 4.852 182.992 4.996 181.792 5.284L181.36 5.392L181.252 5.176L181.9 2.8H184.672C185.056 2.8 185.488 2.788 185.968 2.764C186.448 2.74 186.808 2.704 187.048 2.656L187.084 2.944C187.06 3.664 187.024 4.624 186.976 5.824C186.928 7.168 186.904 8.2 186.904 8.92V12.952C187.552 11.92 188.392 11.116 189.424 10.54C190.48 9.94 191.62 9.64 192.844 9.64C194.428 9.64 195.796 9.988 196.948 10.684C198.124 11.38 199.024 12.376 199.648 13.672C200.296 14.968 200.62 16.48 200.62 18.208V25.948C200.908 25.948 201.724 25.804 203.068 25.516C203.14 25.492 203.212 25.48 203.284 25.48C203.356 25.456 203.416 25.432 203.464 25.408L203.608 25.624L202.924 28H197.776V27.64C197.848 26.008 197.884 24.088 197.884 21.88V18.46C197.884 16.492 197.392 14.944 196.408 13.816C195.424 12.664 194.092 12.088 192.412 12.088C191.404 12.088 190.48 12.364 189.64 12.916C188.8 13.468 188.14 14.236 187.66 15.22C187.18 16.204 186.94 17.284 186.94 18.46V21.88C186.94 23.728 186.976 25.648 187.048 27.64V28H184.096V27.64ZM208.181 27.64C208.277 25.648 208.325 23.728 208.325 21.88V12.052C207.893 12.052 207.077 12.196 205.877 12.484L205.409 12.592L205.301 12.376L205.985 10H208.757C209.141 10 209.561 9.988 210.017 9.964C210.497 9.94 210.869 9.904 211.133 9.856L211.169 10.144C211.049 11.968 210.989 13.96 210.989 16.12V25.948C211.325 25.948 212.081 25.816 213.257 25.552L213.869 25.408L213.977 25.624L213.293 28H208.181V27.64ZM211.493 1.18L209.513 7.444H209.153L207.173 1.18H211.493ZM238.38 25.624L237.66 28H232.512V27.64C232.608 26.008 232.656 24.088 232.656 21.88V18.46C232.656 16.492 232.164 14.944 231.18 13.816C230.196 12.664 228.864 12.088 227.184 12.088C226.152 12.088 225.216 12.364 224.376 12.916C223.536 13.468 222.876 14.236 222.396 15.22C221.916 16.204 221.676 17.284 221.676 18.46V21.88C221.676 23.728 221.724 25.648 221.82 27.64V28H218.868V27.64C218.964 25.648 219.012 23.728 219.012 21.88V12.052C218.58 12.052 217.764 12.196 216.564 12.484L216.096 12.592L215.988 12.376L216.672 10H219.12C219.48 10 219.9 9.988 220.38 9.964C220.86 9.94 221.22 9.904 221.46 9.856L221.496 10.144C221.472 10.672 221.448 11.2 221.424 11.728C221.4 12.256 221.376 12.784 221.352 13.312C221.976 12.184 222.84 11.296 223.944 10.648C225.072 9.976 226.332 9.64 227.724 9.64C229.26 9.64 230.604 9.988 231.756 10.684C232.908 11.38 233.796 12.376 234.42 13.672C235.044 14.968 235.356 16.48 235.356 18.208V25.948C235.668 25.948 236.484 25.804 237.804 25.516C237.876 25.492 237.948 25.48 238.02 25.48C238.092 25.456 238.164 25.432 238.236 25.408L238.38 25.624ZM253.787 29.008L254.831 26.344C254.687 26.416 254.531 26.512 254.363 26.632C254.195 26.752 254.003 26.872 253.787 26.992C253.235 27.4 252.623 27.736 251.951 28C251.303 28.24 250.535 28.36 249.647 28.36C247.967 28.36 246.431 27.964 245.039 27.172C243.671 26.38 242.591 25.276 241.799 23.86C241.007 22.444 240.611 20.848 240.611 19.072C240.611 17.272 241.019 15.664 241.835 14.248C242.651 12.808 243.755 11.68 245.147 10.864C246.563 10.048 248.123 9.64 249.827 9.64C251.579 9.64 253.127 10.036 254.471 10.828C255.839 11.62 256.907 12.724 257.675 14.14C258.443 15.532 258.827 17.116 258.827 18.892C258.827 19.108 258.827 19.312 258.827 19.504C258.827 19.672 258.815 19.852 258.791 20.044H243.311C243.431 21.196 243.767 22.24 244.319 23.176C244.895 24.088 245.639 24.808 246.551 25.336C247.487 25.84 248.543 26.092 249.719 26.092C250.703 26.092 251.615 25.9 252.455 25.516C253.319 25.108 254.039 24.592 254.615 23.968C255.215 23.344 255.635 22.696 255.875 22.024L255.911 21.952L258.179 22.528L256.379 29.152H253.931L253.787 29.008ZM256.055 17.848C255.911 16.672 255.563 15.64 255.011 14.752C254.483 13.864 253.751 13.18 252.815 12.7C251.903 12.22 250.871 11.98 249.719 11.98C248.567 11.98 247.523 12.232 246.587 12.736C245.675 13.216 244.931 13.9 244.355 14.788C243.803 15.676 243.467 16.696 243.347 17.848H256.055Z" fill="#A098AF"/>
</g>
<defs>
<filter id="filter0_i_99_3" x="0.108" y="0.640015" width="258.719" height="32.512" filterUnits="userSpaceOnUse" color-interpolation-filters="sRGB">
<feFlood flood-opacity="0" result="BackgroundImageFix"/>
<feBlend mode="normal" in="SourceGraphic" in2="BackgroundImageFix" result="shape"/>
<feColorMatrix in="SourceAlpha" type="matrix" values="0 0 0 0 0 0 0 0 0 0 0 0 0 0 0 0 0 0 127 0" result="hardAlpha"/>
<feOffset dy="4"/>
<feGaussianBlur stdDeviation="2"/>
<feComposite in2="hardAlpha" operator="arithmetic" k2="-1" k3="1"/>
<feColorMatrix type="matrix" values="0 0 0 0 0.386312 0 0 0 0 0 0 0 0 0 0.927148 0 0 0 0.25 0"/>
<feBlend mode="normal" in2="shape" result="effect1_innerShadow_99_3"/>
</filter>
</defs>
</svg>
